<svg width="53" height="54" viewBox="0 0 53 54" fill="none" xmlns="http://www.w3.org/2000/svg">
<rect y="0.981445" width="52.0371" height="52.0371" rx="26.0186" fill="white"/>
<path d="M25.8312 32.1442C23.4306 32.1051 21.301 31.3358 19.4559 29.8298C17.6901 28.3891 16.5526 26.5571 16.0302 24.3535C15.7656 23.2452 15.7061 22.1239 15.8317 20.9895C16.0434 19.0989 16.7378 17.3908 17.9348 15.8979C19.5154 13.9225 21.5656 12.6773 24.0787 12.2079C26.3206 11.7906 28.4832 12.0644 30.5201 13.088C33.4036 14.5418 35.2157 16.8497 35.9497 19.966C36.1151 20.6635 36.1746 21.3676 36.1746 22.0783C36.1746 27.1308 36.1746 32.1899 36.1746 37.2424C36.1746 39.5568 34.4287 41.6561 32.1272 42.0929C30.4209 42.4188 28.8932 42.0212 27.6102 40.8542C26.4132 39.7654 25.8841 38.3898 25.9966 36.7926C26.1619 34.4847 27.9012 32.6202 30.2225 32.216C30.3085 32.2029 30.4011 32.1964 30.4937 32.1834C30.573 32.1768 30.6458 32.1703 30.7252 32.1638C30.7252 32.1573 30.7252 32.1508 30.7252 32.1377H30.573C29.052 32.1377 27.5309 32.1377 26.0098 32.1377C25.9569 32.1377 25.904 32.1377 25.8511 32.1377L25.8312 32.1442ZM33.7739 28.3825C33.7739 27.5415 33.0861 26.8635 32.233 26.8635C31.3799 26.8635 30.6921 27.5415 30.6921 28.3825C30.6921 29.2235 31.3799 29.9016 32.233 29.9016C33.0861 29.9016 33.7739 29.2235 33.7739 28.3825Z" fill="#077DFD"/>
</svg>
