<svg width="111" height="29" viewBox="0 0 111 29" fill="none" xmlns="http://www.w3.org/2000/svg">
<path d="M14.3223 0.358398H96.374C104.086 0.358398 110.339 6.61002 110.339 14.3223C110.339 22.0347 104.086 28.2871 96.374 28.2871H14.3223C6.61002 28.2869 0.358398 22.0345 0.358398 14.3223C0.358569 6.61013 6.61013 0.358567 14.3223 0.358398Z" fill="white"/>
<path d="M14.3223 0.358398H96.374C104.086 0.358398 110.339 6.61002 110.339 14.3223C110.339 22.0347 104.086 28.2871 96.374 28.2871H14.3223C6.61002 28.2869 0.358398 22.0345 0.358398 14.3223C0.358569 6.61013 6.61013 0.358567 14.3223 0.358398Z" stroke="white" stroke-width="0.716129"/>
<path d="M14.9886 17.8176C15.4355 17.8176 15.8329 17.7553 16.1809 17.6307C16.529 17.5018 16.7846 17.375 16.9479 17.2504L17.6376 18.6233C17.4399 18.7951 17.0983 18.9691 16.6128 19.1453C16.1315 19.3215 15.5558 19.4096 14.8855 19.4096C14.2581 19.4096 13.6716 19.3 13.1259 19.0809C12.5803 18.8574 12.1012 18.5481 11.6887 18.1528C11.2762 17.7532 10.9539 17.287 10.7219 16.7542C10.4899 16.2171 10.3739 15.637 10.3739 15.014C10.3739 14.3909 10.4877 13.8109 10.7155 13.2738C10.9475 12.7324 11.2697 12.2619 11.6822 11.8623C12.0947 11.4627 12.5738 11.1512 13.1195 10.9277C13.6695 10.7043 14.2581 10.5926 14.8855 10.5926C15.5558 10.5926 16.1315 10.6807 16.6128 10.8568C17.0983 11.033 17.4399 11.207 17.6376 11.3789L16.9479 12.7517C16.7846 12.6271 16.529 12.5025 16.1809 12.3779C15.8329 12.249 15.4355 12.1845 14.9886 12.1845C14.5331 12.1845 14.1271 12.2576 13.7705 12.4037C13.4181 12.5498 13.1173 12.7539 12.8681 13.016C12.6232 13.2738 12.4363 13.5724 12.3074 13.9118C12.1785 14.2513 12.1141 14.6122 12.1141 14.9946C12.1141 15.3813 12.1785 15.7466 12.3074 16.0903C12.4363 16.4298 12.6232 16.7305 12.8681 16.9926C13.1173 17.2504 13.4181 17.4524 13.7705 17.5985C14.1271 17.7446 14.5331 17.8176 14.9886 17.8176ZM20.5269 12.1716H18.3936V10.7473H24.2651V12.1716H22.1382V19.2549H20.5269V12.1716ZM27.1034 10.7473H28.7211L31.9953 19.2549H30.2808L29.617 17.418H26.2139L25.5372 19.2549H23.8163L27.1034 10.7473ZM26.7425 15.9936H29.0885L27.9219 12.6937H27.9026L26.7425 15.9936ZM36.0715 19.2549V10.3863H37.7086V14.8206C37.743 14.696 37.8439 14.5542 38.0115 14.3952C38.1791 14.2363 38.4004 14.0988 38.6754 13.9827C38.9547 13.8667 39.2705 13.8087 39.6228 13.8087C40.1298 13.8087 40.5724 13.9312 40.9505 14.1761C41.3329 14.421 41.6294 14.7562 41.8399 15.1815C42.0548 15.6026 42.1622 16.0796 42.1622 16.6124C42.1622 17.1452 42.0548 17.6243 41.8399 18.0496C41.6294 18.4707 41.3329 18.8037 40.9505 19.0486C40.5724 19.2893 40.1298 19.4096 39.6228 19.4096C39.3091 19.4096 39.017 19.3516 38.7463 19.2355C38.4799 19.1195 38.2543 18.9777 38.0695 18.8102C37.8891 18.6426 37.7623 18.4836 37.6893 18.3332V19.2549H36.0715ZM40.5509 16.6124C40.5509 16.3159 40.4886 16.0559 40.364 15.8325C40.2394 15.6048 40.0718 15.4286 39.8613 15.304C39.6507 15.1751 39.4166 15.1106 39.1588 15.1106C38.8881 15.1106 38.6431 15.1751 38.424 15.304C38.2049 15.4329 38.0309 15.6112 37.9019 15.8389C37.773 16.0624 37.7086 16.3202 37.7086 16.6124C37.7086 16.9045 37.773 17.1645 37.9019 17.3922C38.0309 17.6157 38.2049 17.7918 38.424 17.9207C38.6431 18.0453 38.8881 18.1076 39.1588 18.1076C39.4166 18.1076 39.6507 18.0453 39.8613 17.9207C40.0718 17.7961 40.2394 17.6221 40.364 17.3987C40.4886 17.1709 40.5509 16.9088 40.5509 16.6124ZM44.6684 16.4964C44.6684 16.969 44.7629 17.3471 44.9519 17.6307C45.141 17.91 45.4461 18.0496 45.8672 18.0496C46.2925 18.0496 46.5998 17.91 46.7888 17.6307C46.9779 17.3471 47.0724 16.969 47.0724 16.4964V13.9634H48.6837V16.6833C48.6837 17.229 48.5741 17.708 48.355 18.1205C48.1359 18.5287 47.8157 18.8467 47.3947 19.0744C46.9779 19.2979 46.4687 19.4096 45.8672 19.4096C45.2699 19.4096 44.7607 19.2979 44.3397 19.0744C43.9229 18.8467 43.6049 18.5287 43.3858 18.1205C43.1666 17.708 43.0571 17.229 43.0571 16.6833V13.9634H44.6684V16.4964ZM49.5058 13.9634H50.4596V11.7914H52.0838V13.9634H53.3342V15.3233H52.0838V17.2375C52.0838 17.4911 52.1246 17.6887 52.2063 17.8305C52.2879 17.968 52.4168 18.0367 52.593 18.0367C52.7262 18.0367 52.8358 18.011 52.9217 17.9594C53.0076 17.9035 53.0592 17.8649 53.0764 17.8434L53.6564 19.0164C53.6307 19.0422 53.5469 19.0873 53.4051 19.1518C53.2676 19.2162 53.0893 19.2742 52.8701 19.3258C52.6553 19.3816 52.4125 19.4096 52.1418 19.4096C51.6563 19.4096 51.2545 19.2699 50.9366 18.9906C50.6186 18.707 50.4596 18.2688 50.4596 17.6758V15.3233H49.5058V13.9634ZM53.962 13.9634H54.9159V11.7914H56.54V13.9634H57.7904V15.3233H56.54V17.2375C56.54 17.4911 56.5809 17.6887 56.6625 17.8305C56.7441 17.968 56.873 18.0367 57.0492 18.0367C57.1824 18.0367 57.292 18.011 57.3779 17.9594C57.4639 17.9035 57.5154 17.8649 57.5326 17.8434L58.1127 19.0164C58.0869 19.0422 58.0031 19.0873 57.8613 19.1518C57.7238 19.2162 57.5455 19.2742 57.3264 19.3258C57.1115 19.3816 56.8688 19.4096 56.5981 19.4096C56.1125 19.4096 55.7108 19.2699 55.3928 18.9906C55.0748 18.707 54.9159 18.2688 54.9159 17.6758V15.3233H53.962V13.9634ZM61.5297 19.4096C60.9668 19.4096 60.4641 19.2893 60.0215 19.0486C59.5833 18.808 59.2395 18.4793 58.9903 18.0625C58.7411 17.6414 58.6165 17.1624 58.6165 16.6253C58.6165 16.0882 58.7411 15.6091 58.9903 15.188C59.2395 14.7626 59.5833 14.4275 60.0215 14.1825C60.4641 13.9333 60.9668 13.8087 61.5297 13.8087C62.0969 13.8087 62.5975 13.9333 63.0314 14.1825C63.4654 14.4275 63.8049 14.7626 64.0498 15.188C64.2947 15.6091 64.4171 16.0882 64.4171 16.6253C64.4171 17.1624 64.2947 17.6414 64.0498 18.0625C63.8049 18.4793 63.4654 18.808 63.0314 19.0486C62.5975 19.2893 62.0969 19.4096 61.5297 19.4096ZM61.5297 18.0496C61.8004 18.0496 62.0346 17.9895 62.2322 17.8692C62.4342 17.7446 62.5889 17.5748 62.6963 17.36C62.808 17.1409 62.8639 16.8938 62.8639 16.6188C62.8639 16.3438 62.808 16.0968 62.6963 15.8776C62.5889 15.6585 62.4342 15.4866 62.2322 15.362C62.0346 15.2331 61.8004 15.1687 61.5297 15.1687C61.259 15.1687 61.0227 15.2331 60.8207 15.362C60.6231 15.4866 60.4684 15.6585 60.3567 15.8776C60.245 16.0968 60.1891 16.3438 60.1891 16.6188C60.1891 16.8938 60.245 17.1409 60.3567 17.36C60.4684 17.5748 60.6231 17.7446 60.8207 17.8692C61.0227 17.9895 61.259 18.0496 61.5297 18.0496ZM68.8932 13.8087C69.2541 13.8087 69.6065 13.8839 69.9502 14.0343C70.294 14.1804 70.5754 14.4146 70.7945 14.7368C71.018 15.0591 71.1297 15.4802 71.1297 16.0001V19.2549H69.4862V16.2837C69.4862 15.8497 69.383 15.5274 69.1768 15.3169C68.9748 15.1063 68.7084 15.0011 68.3776 15.0011C68.1628 15.0011 67.9565 15.0612 67.7589 15.1815C67.5655 15.2976 67.4065 15.4608 67.2819 15.6714C67.1616 15.8776 67.1015 16.1139 67.1015 16.3803V19.2549H65.4644V13.9634H67.1015V14.8077C67.1487 14.6616 67.2561 14.5112 67.4237 14.3566C67.5913 14.2019 67.804 14.073 68.0618 13.9698C68.3196 13.8624 68.5967 13.8087 68.8932 13.8087Z" fill="#077DFD"/>
<rect x="84.9161" y="2.8645" width="22.9161" height="22.9161" rx="11.4581" fill="#077DFD"/>
<path d="M91.3625 14.3225H101.388M101.388 14.3225L96.3755 9.30957M101.388 14.3225L96.3755 19.3354" stroke="white" stroke-width="1.43226" stroke-linecap="round" stroke-linejoin="round"/>
</svg>
