<svg width="42" height="42" viewBox="0 0 42 42" fill="none" xmlns="http://www.w3.org/2000/svg">
<path d="M4.23521 22.2481C3.99689 21.8707 3.87772 21.682 3.81102 21.391C3.76091 21.1724 3.76091 20.8276 3.81102 20.609C3.87772 20.318 3.99689 20.1293 4.23521 19.7519C6.20468 16.6335 12.0669 8.75 21.0007 8.75C29.9345 8.75 35.7967 16.6335 37.7662 19.7519C38.0045 20.1293 38.1237 20.318 38.1904 20.609C38.2405 20.8276 38.2405 21.1724 38.1904 21.391C38.1237 21.682 38.0045 21.8707 37.7662 22.2481C35.7967 25.3665 29.9345 33.25 21.0007 33.25C12.067 33.25 6.20468 25.3665 4.23521 22.2481Z" stroke="#031D3D" stroke-width="2" stroke-linecap="round" stroke-linejoin="round"/>
<path d="M21.0007 26.25C23.9002 26.25 26.2507 23.8995 26.2507 21C26.2507 18.1005 23.9002 15.75 21.0007 15.75C18.1012 15.75 15.7507 18.1005 15.7507 21C15.7507 23.8995 18.1012 26.25 21.0007 26.25Z" stroke="#031D3D" stroke-width="2" stroke-linecap="round" stroke-linejoin="round"/>
</svg>
