<svg width="42" height="42" viewBox="0 0 42 42" fill="none" xmlns="http://www.w3.org/2000/svg">
<path d="M3 11.8571L27 11.8571M27 11.8571C27 15.6442 29.6863 18.7143 33 18.7143C36.3137 18.7143 39 15.6442 39 11.8571C39 8.07005 36.3137 5 33 5C29.6863 5 27 8.07005 27 11.8571ZM15 30.1429L39 30.1429M15 30.1429C15 33.93 12.3137 37 9 37C5.68629 37 3 33.93 3 30.1429C3 26.3558 5.68629 23.2857 9 23.2857C12.3137 23.2857 15 26.3558 15 30.1429Z" stroke="#031D3D" stroke-width="2" stroke-linecap="round" stroke-linejoin="round"/>
</svg>
