<svg width="102" height="16" viewBox="0 0 102 16" fill="none" xmlns="http://www.w3.org/2000/svg">
<path d="M7.44388 1.98708C7.57763 1.71606 7.96409 1.71606 8.09785 1.98708L9.82933 5.49543C9.88244 5.60306 9.98511 5.67765 10.1039 5.69491L13.9756 6.2575C14.2747 6.30096 14.3941 6.66851 14.1777 6.87946L11.3761 9.61034C11.2901 9.69411 11.2509 9.81481 11.2712 9.93309L11.9326 13.7892C11.9837 14.087 11.671 14.3142 11.4035 14.1735L7.94055 12.353C7.83432 12.2971 7.70741 12.2971 7.60118 12.353L4.13823 14.1735C3.87071 14.3142 3.55806 14.087 3.60915 13.7892L4.27052 9.93309C4.2908 9.81481 4.25159 9.69411 4.16565 9.61034L1.36406 6.87946C1.14764 6.66851 1.26706 6.30096 1.56614 6.2575L5.43785 5.69491C5.55661 5.67765 5.65928 5.60306 5.7124 5.49543L7.44388 1.98708Z" fill="#FCD834" stroke="#FCD834" stroke-width="1.55405" stroke-linejoin="round"/>
<path d="M28.9844 1.98708C29.1182 1.71606 29.5046 1.71606 29.6384 1.98708L31.3699 5.49543C31.423 5.60306 31.5256 5.67765 31.6444 5.69491L35.5161 6.2575C35.8152 6.30096 35.9346 6.66851 35.7182 6.87946L32.9166 9.61034C32.8307 9.69411 32.7915 9.81481 32.8117 9.93309L33.4731 13.7892C33.5242 14.087 33.2115 14.3142 32.944 14.1735L29.4811 12.353C29.3748 12.2971 29.2479 12.2971 29.1417 12.353L25.6788 14.1735C25.4112 14.3142 25.0986 14.087 25.1497 13.7892L25.811 9.93309C25.8313 9.81481 25.7921 9.69411 25.7062 9.61034L22.9046 6.87946C22.6882 6.66851 22.8076 6.30096 23.1067 6.2575L26.9784 5.69491C27.0971 5.67765 27.1998 5.60306 27.2529 5.49543L28.9844 1.98708Z" fill="#FCD834" stroke="#FCD834" stroke-width="1.55405" stroke-linejoin="round"/>
<path d="M50.5249 1.98708C50.6587 1.71606 51.0451 1.71606 51.1789 1.98708L52.9104 5.49543C52.9635 5.60306 53.0662 5.67765 53.1849 5.69491L57.0566 6.2575C57.3557 6.30096 57.4751 6.66851 57.2587 6.87946L54.4571 9.61034C54.3712 9.69411 54.332 9.81481 54.3523 9.93309L55.0136 13.7892C55.0647 14.087 54.7521 14.3142 54.4846 14.1735L51.0216 12.353C50.9154 12.2971 50.7885 12.2971 50.6822 12.353L47.2193 14.1735C46.9518 14.3142 46.6391 14.087 46.6902 13.7892L47.3516 9.93309C47.3719 9.81481 47.3326 9.69411 47.2467 9.61034L44.4451 6.87946C44.2287 6.66851 44.3481 6.30096 44.6472 6.2575L48.5189 5.69491C48.6377 5.67765 48.7403 5.60306 48.7935 5.49543L50.5249 1.98708Z" fill="#FCD834" stroke="#FCD834" stroke-width="1.55405" stroke-linejoin="round"/>
<path d="M72.0655 1.98708C72.1992 1.71606 72.5857 1.71606 72.7194 1.98708L74.4509 5.49543C74.504 5.60306 74.6067 5.67765 74.7255 5.69491L78.5972 6.2575C78.8963 6.30096 79.0157 6.66851 78.7993 6.87946L75.9977 9.61034C75.9117 9.69411 75.8725 9.81481 75.8928 9.93309L76.5542 13.7892C76.6052 14.087 76.2926 14.3142 76.0251 14.1735L72.5621 12.353C72.4559 12.2971 72.329 12.2971 72.2228 12.353L68.7598 14.1735C68.4923 14.3142 68.1796 14.087 68.2307 13.7892L68.8921 9.93309C68.9124 9.81481 68.8732 9.69411 68.7872 9.61034L65.9856 6.87946C65.7692 6.66851 65.8886 6.30096 66.1877 6.2575L70.0594 5.69491C70.1782 5.67765 70.2809 5.60306 70.334 5.49543L72.0655 1.98708Z" fill="#FCD834" stroke="#FCD834" stroke-width="1.55405" stroke-linejoin="round"/>
<path d="M93.606 1.98708C93.7397 1.71606 94.1262 1.71606 94.26 1.98708L95.9914 5.49543C96.0446 5.60306 96.1472 5.67765 96.266 5.69491L100.138 6.2575C100.437 6.30096 100.556 6.66851 100.34 6.87946L97.5382 9.61034C97.4523 9.69411 97.413 9.81481 97.4333 9.93309L98.0947 13.7892C98.1458 14.087 97.8331 14.3142 97.5656 14.1735L94.1027 12.353C93.9964 12.2971 93.8695 12.2971 93.7633 12.353L90.3003 14.1735C90.0328 14.3142 89.7202 14.087 89.7713 13.7892L90.4326 9.93309C90.4529 9.81481 90.4137 9.69411 90.3278 9.61034L87.5262 6.87946C87.3097 6.66851 87.4292 6.30096 87.7283 6.2575L91.6 5.69491C91.7187 5.67765 91.8214 5.60306 91.8745 5.49543L93.606 1.98708Z" fill="#FCD834" stroke="#FCD834" stroke-width="1.55405" stroke-linejoin="round"/>
</svg>
