<svg width="111" height="29" viewBox="0 0 111 29" fill="none" xmlns="http://www.w3.org/2000/svg">
<path d="M14.3223 0.358398H96.374C104.086 0.358398 110.339 6.61002 110.339 14.3223C110.339 22.0347 104.086 28.2871 96.374 28.2871H14.3223C6.61002 28.2869 0.358398 22.0345 0.358398 14.3223C0.358569 6.61013 6.61013 0.358567 14.3223 0.358398Z" fill="#077DFD"/>
<path d="M14.3223 0.358398H96.374C104.086 0.358398 110.339 6.61002 110.339 14.3223C110.339 22.0347 104.086 28.2871 96.374 28.2871H14.3223C6.61002 28.2869 0.358398 22.0345 0.358398 14.3223C0.358569 6.61013 6.61013 0.358567 14.3223 0.358398Z" stroke="#077DFD" stroke-width="0.716129"/>
<g clip-path="url(#clip0_33_2889)">
<path d="M14.9882 17.8181C15.435 17.8181 15.8325 17.7558 16.1805 17.6312C16.5286 17.5023 16.7842 17.3755 16.9475 17.2509L17.6371 18.6237C17.4395 18.7956 17.0979 18.9696 16.6123 19.1458C16.1311 19.322 15.5553 19.4101 14.885 19.4101C14.2577 19.4101 13.6712 19.3005 13.1255 19.0814C12.5798 18.8579 12.1007 18.5486 11.6882 18.1532C11.2758 17.7536 10.9535 17.2874 10.7215 16.7546C10.4894 16.2176 10.3734 15.6375 10.3734 15.0145C10.3734 14.3914 10.4873 13.8114 10.715 13.2743C10.947 12.7329 11.2693 12.2624 11.6818 11.8628C12.0943 11.4632 12.5734 11.1517 13.1191 10.9282C13.6691 10.7048 14.2577 10.5931 14.885 10.5931C15.5553 10.5931 16.1311 10.6812 16.6123 10.8573C17.0979 11.0335 17.4395 11.2075 17.6371 11.3794L16.9475 12.7522C16.7842 12.6276 16.5286 12.503 16.1805 12.3784C15.8325 12.2495 15.435 12.185 14.9882 12.185C14.5327 12.185 14.1267 12.2581 13.77 12.4042C13.4177 12.5503 13.1169 12.7544 12.8677 13.0165C12.6228 13.2743 12.4359 13.5729 12.307 13.9123C12.1781 14.2518 12.1136 14.6127 12.1136 14.9951C12.1136 15.3818 12.1781 15.7471 12.307 16.0908C12.4359 16.4302 12.6228 16.731 12.8677 16.9931C13.1169 17.2509 13.4177 17.4529 13.77 17.599C14.1267 17.7451 14.5327 17.8181 14.9882 17.8181ZM20.5265 12.1721H18.3931V10.7478H24.2647V12.1721H22.1378V19.2554H20.5265V12.1721ZM27.103 10.7478H28.7207L31.9948 19.2554H30.2804L29.6166 17.4185H26.2135L25.5368 19.2554H23.8159L27.103 10.7478ZM26.742 15.9941H29.0881L27.9215 12.6942H27.9022L26.742 15.9941ZM36.0711 19.2554V10.3868H37.7082V14.8211C37.7425 14.6965 37.8435 14.5547 38.0111 14.3957C38.1787 14.2367 38.3999 14.0992 38.6749 13.9832C38.9542 13.8672 39.27 13.8092 39.6224 13.8092C40.1294 13.8092 40.572 13.9317 40.9501 14.1766C41.3325 14.4215 41.629 14.7566 41.8395 15.182C42.0544 15.6031 42.1618 16.0801 42.1618 16.6129C42.1618 17.1457 42.0544 17.6247 41.8395 18.0501C41.629 18.4712 41.3325 18.8042 40.9501 19.0491C40.572 19.2897 40.1294 19.4101 39.6224 19.4101C39.3087 19.4101 39.0165 19.352 38.7458 19.236C38.4794 19.12 38.2539 18.9782 38.0691 18.8107C37.8886 18.6431 37.7619 18.4841 37.6888 18.3337V19.2554H36.0711ZM40.5505 16.6129C40.5505 16.3164 40.4882 16.0564 40.3636 15.833C40.239 15.6053 40.0714 15.4291 39.8609 15.3045C39.6503 15.1756 39.4161 15.1111 39.1583 15.1111C38.8876 15.1111 38.6427 15.1756 38.4236 15.3045C38.2044 15.4334 38.0304 15.6117 37.9015 15.8394C37.7726 16.0629 37.7082 16.3207 37.7082 16.6129C37.7082 16.905 37.7726 17.165 37.9015 17.3927C38.0304 17.6162 38.2044 17.7923 38.4236 17.9212C38.6427 18.0458 38.8876 18.1081 39.1583 18.1081C39.4161 18.1081 39.6503 18.0458 39.8609 17.9212C40.0714 17.7966 40.239 17.6226 40.3636 17.3992C40.4882 17.1714 40.5505 16.9093 40.5505 16.6129ZM44.6679 16.4968C44.6679 16.9695 44.7625 17.3476 44.9515 17.6312C45.1406 17.9105 45.4457 18.0501 45.8667 18.0501C46.2921 18.0501 46.5993 17.9105 46.7884 17.6312C46.9775 17.3476 47.072 16.9695 47.072 16.4968V13.9639H48.6833V16.6838C48.6833 17.2294 48.5737 17.7085 48.3546 18.121C48.1354 18.5292 47.8153 18.8472 47.3942 19.0749C46.9775 19.2983 46.4683 19.4101 45.8667 19.4101C45.2695 19.4101 44.7603 19.2983 44.3392 19.0749C43.9224 18.8472 43.6045 18.5292 43.3853 18.121C43.1662 17.7085 43.0566 17.2294 43.0566 16.6838V13.9639H44.6679V16.4968ZM49.5053 13.9639H50.4592V11.7919H52.0834V13.9639H53.3338V15.3238H52.0834V17.238C52.0834 17.4915 52.1242 17.6892 52.2059 17.831C52.2875 17.9685 52.4164 18.0372 52.5926 18.0372C52.7258 18.0372 52.8353 18.0115 52.9213 17.9599C53.0072 17.904 53.0588 17.8654 53.076 17.8439L53.656 19.0169C53.6302 19.0427 53.5464 19.0878 53.4047 19.1522C53.2672 19.2167 53.0888 19.2747 52.8697 19.3263C52.6549 19.3821 52.4121 19.4101 52.1414 19.4101C51.6559 19.4101 51.2541 19.2704 50.9362 18.9911C50.6182 18.7075 50.4592 18.2693 50.4592 17.6763V15.3238H49.5053V13.9639ZM53.9616 13.9639H54.9154V11.7919H56.5396V13.9639H57.79V15.3238H56.5396V17.238C56.5396 17.4915 56.5804 17.6892 56.6621 17.831C56.7437 17.9685 56.8726 18.0372 57.0488 18.0372C57.182 18.0372 57.2916 18.0115 57.3775 17.9599C57.4634 17.904 57.515 17.8654 57.5322 17.8439L58.1122 19.0169C58.0865 19.0427 58.0027 19.0878 57.8609 19.1522C57.7234 19.2167 57.5451 19.2747 57.3259 19.3263C57.1111 19.3821 56.8683 19.4101 56.5976 19.4101C56.1121 19.4101 55.7103 19.2704 55.3924 18.9911C55.0744 18.7075 54.9154 18.2693 54.9154 17.6763V15.3238H53.9616V13.9639ZM61.5293 19.4101C60.9664 19.4101 60.4637 19.2897 60.0211 19.0491C59.5828 18.8085 59.2391 18.4798 58.9899 18.063C58.7407 17.6419 58.6161 17.1628 58.6161 16.6257C58.6161 16.0886 58.7407 15.6096 58.9899 15.1885C59.2391 14.7631 59.5828 14.4279 60.0211 14.183C60.4637 13.9338 60.9664 13.8092 61.5293 13.8092C62.0965 13.8092 62.597 13.9338 63.031 14.183C63.465 14.4279 63.8044 14.7631 64.0493 15.1885C64.2943 15.6096 64.4167 16.0886 64.4167 16.6257C64.4167 17.1628 64.2943 17.6419 64.0493 18.063C63.8044 18.4798 63.465 18.8085 63.031 19.0491C62.597 19.2897 62.0965 19.4101 61.5293 19.4101ZM61.5293 18.0501C61.8 18.0501 62.0342 17.99 62.2318 17.8697C62.4338 17.7451 62.5884 17.5753 62.6959 17.3605C62.8076 17.1414 62.8634 16.8943 62.8634 16.6193C62.8634 16.3443 62.8076 16.0972 62.6959 15.8781C62.5884 15.659 62.4338 15.4871 62.2318 15.3625C62.0342 15.2336 61.8 15.1691 61.5293 15.1691C61.2586 15.1691 61.0223 15.2336 60.8203 15.3625C60.6227 15.4871 60.468 15.659 60.3563 15.8781C60.2445 16.0972 60.1887 16.3443 60.1887 16.6193C60.1887 16.8943 60.2445 17.1414 60.3563 17.3605C60.468 17.5753 60.6227 17.7451 60.8203 17.8697C61.0223 17.99 61.2586 18.0501 61.5293 18.0501ZM68.8928 13.8092C69.2537 13.8092 69.606 13.8844 69.9498 14.0348C70.2935 14.1809 70.575 14.4151 70.7941 14.7373C71.0175 15.0596 71.1293 15.4807 71.1293 16.0006V19.2554H69.4857V16.2842C69.4857 15.8502 69.3826 15.5279 69.1764 15.3174C68.9744 15.1068 68.708 15.0016 68.3772 15.0016C68.1623 15.0016 67.9561 15.0617 67.7584 15.182C67.5651 15.298 67.4061 15.4613 67.2815 15.6719C67.1612 15.8781 67.101 16.1144 67.101 16.3808V19.2554H65.464V13.9639H67.101V14.8082C67.1483 14.6621 67.2557 14.5117 67.4233 14.357C67.5909 14.2024 67.8035 14.0735 68.0614 13.9703C68.3192 13.8629 68.5963 13.8092 68.8928 13.8092Z" fill="white"/>
</g>
<rect x="84.916" y="2.86475" width="22.9161" height="22.9161" rx="11.4581" fill="#031D3D"/>
<path d="M91.3613 14.323H101.387M101.387 14.323L96.3742 9.31006M101.387 14.323L96.3742 19.3359" stroke="white" stroke-width="1.43226" stroke-linecap="round" stroke-linejoin="round"/>
<defs>
<clipPath id="clip0_33_2889">
<rect width="76.3226" height="15.8645" fill="white" transform="translate(2.86426 6.39062)"/>
</clipPath>
</defs>
</svg>
