<svg width="42" height="42" viewBox="0 0 42 42" fill="none" xmlns="http://www.w3.org/2000/svg">
<path d="M21 35H9.1C7.13982 35 6.15972 35 5.41103 34.6185C4.75247 34.283 4.21703 33.7475 3.88148 33.089C3.5 32.3403 3.5 31.3602 3.5 29.4V12.6C3.5 10.6398 3.5 9.65972 3.88148 8.91103C4.21703 8.25247 4.75247 7.71703 5.41103 7.38148C6.15972 7 7.13982 7 9.1 7H9.8C13.7204 7 15.6806 7 17.1779 7.76295C18.4951 8.43407 19.5659 9.50493 20.237 10.8221C21 12.3194 21 14.2796 21 18.2M21 35V18.2M21 35H32.9C34.8602 35 35.8403 35 36.589 34.6185C37.2475 34.283 37.783 33.7475 38.1185 33.089C38.5 32.3403 38.5 31.3602 38.5 29.4V12.6C38.5 10.6398 38.5 9.65972 38.1185 8.91103C37.783 8.25247 37.2475 7.71703 36.589 7.38148C35.8403 7 34.8602 7 32.9 7H32.2C28.2796 7 26.3194 7 24.8221 7.76295C23.5049 8.43407 22.4341 9.50493 21.763 10.8221C21 12.3194 21 14.2796 21 18.2" stroke="#031D3D" stroke-width="2" stroke-linecap="round" stroke-linejoin="round"/>
</svg>
