<svg width="42" height="42" viewBox="0 0 42 42" fill="none" xmlns="http://www.w3.org/2000/svg">
<path d="M14 36.75H28M21 29.75V36.75M11.9 29.75H30.1C33.0403 29.75 34.5104 29.75 35.6334 29.1778C36.6213 28.6744 37.4244 27.8713 37.9278 26.8835C38.5 25.7604 38.5 24.2903 38.5 21.35V13.65C38.5 10.7097 38.5 9.23959 37.9278 8.11655C37.4244 7.1287 36.6213 6.32555 35.6334 5.82222C34.5104 5.25 33.0403 5.25 30.1 5.25H11.9C8.95972 5.25 7.48959 5.25 6.36655 5.82222C5.3787 6.32555 4.57555 7.1287 4.07222 8.11655C3.5 9.23959 3.5 10.7097 3.5 13.65V21.35C3.5 24.2903 3.5 25.7604 4.07222 26.8835C4.57555 27.8713 5.3787 28.6744 6.36655 29.1778C7.48959 29.75 8.95972 29.75 11.9 29.75Z" stroke="#031D3D" stroke-width="2" stroke-linecap="round" stroke-linejoin="round"/>
</svg>
